<svg width="48" height="48" viewBox="0 0 48 48" fill="none" xmlns="http://www.w3.org/2000/svg">
<path d="M20 28L42 6M20 28L27 42C27.0878 42.1915 27.2286 42.3537 27.4059 42.4675C27.5832 42.5813 27.7894 42.6417 28 42.6417C28.2107 42.6417 28.4169 42.5813 28.5941 42.4675C28.7714 42.3537 28.9123 42.1915 29 42L42 6M20 28L6.00002 21C5.80854 20.9123 5.64627 20.7714 5.53251 20.5941C5.41875 20.4168 5.35828 20.2106 5.35828 20C5.35828 19.7894 5.41875 19.5832 5.53251 19.4059C5.64627 19.2286 5.80854 19.0877 6.00002 19L42 6" stroke="white" stroke-width="4" stroke-linecap="round" stroke-linejoin="round"/>
</svg>
