<svg width="100" height="100" viewBox="0 0 100 100" fill="none" xmlns="http://www.w3.org/2000/svg">
<path d="M56.6333 80.4708C68.4667 80.4708 78.9917 70.9542 80.4667 59.5375V59.375H87.5C86.7473 67.0515 83.1748 74.1762 77.4733 79.3712C71.7719 84.5663 64.3465 87.4626 56.6333 87.5H43.5083C26.4 87.5 12.5 73.625 12.5 56.5625V43.4375C12.5 26.375 26.4208 12.5 43.5083 12.5H56.6333C64.3465 12.5374 71.7719 15.4337 77.4733 20.6288C83.1748 25.8238 86.7473 32.9485 87.5 40.625H80.4667C78.9917 29.2083 68.4667 19.5333 56.6333 19.5333H43.5083C37.203 19.6656 31.1916 22.2242 26.7251 26.6767C22.2586 31.1292 19.6812 37.1326 19.5292 43.4375V56.5625C19.5292 69.3583 30.6625 80.4708 43.5083 80.4708H56.6333ZM50 35.9375C53.8667 35.9375 57.0292 39.2417 57.0292 43.3208C57.0292 46.1792 55.4875 48.6625 53.2375 49.8833L55.8375 61.7167H44.1625L46.7667 49.8833C45.6014 49.2326 44.6333 48.2795 43.9645 47.1245C43.2957 45.9695 42.951 44.6554 42.9667 43.3208C42.9434 42.3741 43.1069 41.4322 43.4478 40.5487C43.7887 39.6652 44.3004 38.8576 44.9536 38.1719C45.6067 37.4862 46.3886 36.936 47.2545 36.5526C48.1204 36.1692 49.0533 35.9602 50 35.9375Z" fill="white"/>
</svg>
