<svg width="43" height="48" viewBox="0 0 43 48" fill="none" xmlns="http://www.w3.org/2000/svg">
<path d="M21.0093 13.2186C15.0468 13.2186 10.2375 18.0279 10.2375 23.9904C10.2375 29.9529 15.0468 34.7623 21.0093 34.7623C26.9718 34.7623 31.7812 29.9529 31.7812 23.9904C31.7812 18.0279 26.9718 13.2186 21.0093 13.2186ZM21.0093 30.9936C17.1562 30.9936 14.0062 27.8529 14.0062 23.9904C14.0062 20.1279 17.1468 16.9873 21.0093 16.9873C24.8718 16.9873 28.0125 20.1279 28.0125 23.9904C28.0125 27.8529 24.8625 30.9936 21.0093 30.9936ZM34.7343 12.7779C34.7343 14.1748 33.6093 15.2904 32.2218 15.2904C30.825 15.2904 29.7093 14.1654 29.7093 12.7779C29.7093 11.3904 30.8343 10.2654 32.2218 10.2654C33.6093 10.2654 34.7343 11.3904 34.7343 12.7779ZM41.8687 15.3279C41.7093 11.9623 40.9406 8.98105 38.475 6.5248C36.0187 4.06855 33.0375 3.2998 29.6718 3.13105C26.2031 2.93418 15.8062 2.93418 12.3375 3.13105C8.9812 3.29043 5.99995 4.05918 3.53433 6.51543C1.0687 8.97168 0.309326 11.9529 0.140576 15.3186C-0.0562988 18.7873 -0.0562988 29.1842 0.140576 32.6529C0.299951 36.0186 1.0687 38.9998 3.53433 41.4561C5.99995 43.9123 8.97183 44.6811 12.3375 44.8498C15.8062 45.0467 26.2031 45.0467 29.6718 44.8498C33.0375 44.6904 36.0187 43.9217 38.475 41.4561C40.9312 38.9998 41.7 36.0186 41.8687 32.6529C42.0656 29.1842 42.0656 18.7967 41.8687 15.3279ZM37.3875 36.3748C36.6562 38.2123 35.2406 39.6279 33.3937 40.3686C30.6281 41.4654 24.0656 41.2123 21.0093 41.2123C17.9531 41.2123 11.3812 41.4561 8.62495 40.3686C6.78745 39.6373 5.37183 38.2217 4.6312 36.3748C3.53433 33.6092 3.78745 27.0467 3.78745 23.9904C3.78745 20.9342 3.5437 14.3623 4.6312 11.6061C5.36245 9.76855 6.77808 8.35293 8.62495 7.6123C11.3906 6.51543 17.9531 6.76855 21.0093 6.76855C24.0656 6.76855 30.6375 6.5248 33.3937 7.6123C35.2312 8.34355 36.6468 9.75918 37.3875 11.6061C38.4843 14.3717 38.2312 20.9342 38.2312 23.9904C38.2312 27.0467 38.4843 33.6186 37.3875 36.3748Z" fill="white"/>
</svg>
