<svg width="41" height="41" viewBox="0 0 41 41" fill="none" xmlns="http://www.w3.org/2000/svg">
<path d="M17 24L39 2M17 24L24 38C24.0877 38.1915 24.2286 38.3537 24.4059 38.4675C24.5832 38.5813 24.7894 38.6417 25 38.6417C25.2106 38.6417 25.4168 38.5813 25.5941 38.4675C25.7714 38.3537 25.9123 38.1915 26 38L39 2M17 24L3 17C2.80852 16.9123 2.64625 16.7714 2.53249 16.5941C2.41873 16.4168 2.35826 16.2106 2.35826 16C2.35826 15.7894 2.41873 15.5832 2.53249 15.4059C2.64625 15.2286 2.80852 15.0877 3 15L39 2" stroke="white" stroke-width="4" stroke-linecap="round" stroke-linejoin="round"/>
</svg>
